<svg xmlns="http://www.w3.org/2000/svg" viewBox="0 0 240 280" role="img" aria-label="Escudo Atlético Zabal Linense">
  <defs>
    <clipPath id="shield"><path d="M24 24h192l-22 144-74 92-74-92z"/></clipPath>
  </defs>
  <path d="M24 24h192l-22 144-74 92-74-92z" fill="#f5d400" stroke="#061a44" stroke-width="8"/>
  <g clip-path="url(#shield)">
    <rect x="34" y="36" width="172" height="70" fill="#fff"/>
    <rect x="34" y="104" width="172" height="140" fill="#061a44"/>
    <rect x="54" y="104" width="26" height="140" fill="#f5d400"/>
    <rect x="108" y="104" width="26" height="140" fill="#f5d400"/>
    <rect x="162" y="104" width="26" height="140" fill="#f5d400"/>
    <path d="M24 116 210 52l12 38L38 154z" fill="#fff" stroke="#061a44" stroke-width="5"/>
  </g>
  <g fill="#f5d400" stroke="#061a44" stroke-width="4">
    <rect x="58" y="55" width="22" height="18"/>
    <rect x="84" y="49" width="22" height="24"/>
    <rect x="110" y="55" width="22" height="18"/>
    <rect x="64" y="75" width="64" height="20"/>
    <rect x="76" y="95" width="40" height="18"/>
  </g>
  <text x="72" y="142" transform="rotate(-19 72 142)" font-family="Arial, sans-serif" font-size="25" font-weight="800" fill="#061a44">ATL. ZABAL LINENSE</text>
  <g transform="translate(92 154)">
    <circle cx="28" cy="28" r="30" fill="#fff" stroke="#061a44" stroke-width="5"/>
    <polygon points="28,8 42,20 37,38 19,38 14,20" fill="#061a44"/>
    <path d="M28 8v-7M42 20l8-8M37 38l10 10M19 38 9 48M14 20 6 12" stroke="#061a44" stroke-width="4"/>
  </g>
</svg>
